PathFileType	4	(X/Y/Z)	C:/Users/beibeiliu/ov580/test_trc/User2\sequence.10_training_dense_left.trc
DataRate	CameraRate	NumFrames	NumMarkers	Units	OrigDataRate	OrigDataStartFrame	OrigNumFrames
120	120	16	19	mm	120	364	484
Frame#	Time	ThumbCMC			ThumbMCP			ThumbIP			ThumbTip			IndexMCP			IndexPIP			IndexTip			MiddleMCP			MiddlePIP			MiddleTip			RingMCP			RingPIP			RingTip			PinkyMCP			PinkyPIP			PinkyTip			BackHand1			BackHand2			BackHand3	
		X0	Y0	Z0	X1	Y1	Z1	X2	Y2	Z2	X3	Y3	Z3	X4	Y4	Z4	X5	Y5	Z5	X6	Y6	Z6	X7	Y7	Z7	X8	Y8	Z8	X9	Y9	Z9	X10	Y10	Z10	X11	Y11	Z11	X12	Y12	Z12	X13	Y13	Z13	X14	Y14	Z14	X15	Y15	Z15	X16	Y16	Z16	X17	Y17	Z17	X18	Y18	Z18	
363	3.025	-142.261	-24.9735	124.137	-141.59	-58.2885	100.892	-153.435	-83.9647	82.2369	-182.602	-94.1081	73.774	-171.897	-11.5581	51.0704	-172.959	-15.5327	22.8842	-172.281	-20.2663	-7.80211	-208.532	-18.042	52.2783	-216.483	-30.412	22.3648	-225.983	-53.7133	-3.48365	-218.006	-48.6662	66.9788	-209.284	-80.7717	63.6561	-188.61	-89.5927	91.0409	-225.231	-62.5649	88.7957	-205.821	-87.9357	98.221	-183.363	-77.0512	119.082	-210.98	-7.68319	117.108	-200.877	1.00958	148.43	-174.226	6.35189	118.99	
364	3.03333	-138.622	-17.6108	127.377	-133.271	-51.0852	109.671	-143.039	-82.696	92.9786	-164.145	-97.2085	88.6938	-169.821	-18.4603	48.3098	-167.646	-26.4072	23.2076	-166.372	-35.3694	-2.04674	-201.457	-27.578	52.6441	-204.855	-49.564	22.994	-205.664	-81.0171	8.85869	-210.136	-60.3088	71.9326	-194.627	-88.8944	74.5317	-173.406	-89.9264	101.074	-217.472	-70.771	97.8957	-187.771	-87.3083	107.696	-171.29	-69.3115	125.458	-213.623	-10.9794	118.209	-203.151	4.46463	146.995	-177.797	7.31253	115.615	
365	3.04167	-140.632	-6.46403	131.023	-125.722	-42.2467	117.254	-126.245	-74.5299	105.538	-145.407	-96.3176	99.4622	-163.269	-19.8813	55.3102	-158.099	-32.1606	28.611	-152.928	-46.311	1.7468	-189.291	-37.908	54.5824	-188.07	-65.0406	30.9519	-176.661	-97.3498	24.7419	-191.108	-69.9977	76.2733	-172.013	-94.1818	87.5739	-153.937	-84.7225	112.794	-201.964	-77.0945	103.667	-172.067	-87.6691	117.447	-159.489	-66.7176	136.1	-207.933	-17.2721	110.928	-209.696	1.48927	141.798	-181.214	9.49124	117.733	
366	3.05	-142.594	2.50531	130.211	-117.236	-26.6637	124.084	-110.78	-62.88	113.033	-121.182	-89.7855	107.837	-154.702	-18.292	54.1184	-146.423	-30.968	29.0248	-138.192	-48.5019	8.15641	-177.923	-45.3691	53.5524	-165.614	-72.2915	33.9824	-147.03	-105.599	32.6412	-173.925	-74.3221	81.5219	-151.811	-91.6354	95.1106	-136.449	-75.9682	124.321	-181.806	-79.3452	107.009	-155.247	-82.6228	123.435	-148.369	-54.8158	141.737	-205.524	-21.1803	107.916	-210.9	0.663314	137.69	-185.58	10.4918	113.077	
367	3.05833	-145.904	17.3138	130.363	-115.808	-10.3974	125.721	-102.372	-40.7573	119.936	-105.944	-70.4357	114.575	-151.448	-16.6062	51.3688	-140.788	-27.1656	31.7392	-121.623	-37.7548	10.7571	-169.21	-48.1744	57.5288	-150.952	-70.1961	38.6593	-126.124	-96.6669	36.4483	-159.466	-69.8202	86.0938	-132.84	-80.1211	98.6199	-122.02	-58.2864	130.715	-167.921	-77.5869	111.759	-138.825	-72.6869	127.754	-136.663	-44.0232	142.333	-201.638	-29.3342	108.571	-214.844	-4.73446	134.417	-187.966	12.0838	109.497	
368	3.06667	-159.519	26.1747	129.731	-118.326	11.011	126.855	-93.0731	-15.5583	121.486	-90.9767	-46.8916	116.497	-148.719	-6.78957	52.7247	-130.17	-14.7919	29.066	-110.995	-23.4658	11.7801	-156.774	-43.6705	57.8508	-131.704	-62.3693	41.1923	-105.287	-76.1245	35.2928	-139.503	-60.4492	86.905	-114.495	-61.836	101.041	-108.751	-36.5034	130.536	-145.275	-67.7496	112.258	-121.803	-54.1045	130.5	-126.732	-30.5713	147.453	-196.26	-30.6182	106.635	-215.483	-14.2422	133.331	-194.399	9.12255	106.55	
369	3.075	-171.225	30.5208	124.811	-133.253	27.3929	127.443	-100.586	9.79485	122.522	-87.8348	-10.4828	123.921	-150.567	-2.47556	56.7609	-128.03	-4.06678	31.2325	-108.615	-8.69728	16.8644	-144.667	-36.4655	59.2454	-119.039	-43.0441	44.7009	-86.6597	-55.7031	39.7911	-125.437	-48.6722	91.3629	-99.3642	-37.7875	107.509	-103.97	-12.6733	133.544	-135.139	-54.3685	114.421	-111.463	-38.8543	133.879	-122.68	-10.3718	147.298	-187.541	-36.8933	108.375	-215.65	-27.0966	131.317	-201.519	5.42226	106.115	
370	3.08333	-185.818	34.8793	122.702	-148.327	43.3057	126.643	-112.237	32.8227	123.724	-90.3737	14.7408	124.158	-153.172	8.21641	57.2495	-131.365	10.5242	33.6166	-109.668	11.2628	18.5308	-137.97	-23.323	63.3189	-109.318	-26.4392	48.3236	-73.0714	-26.4884	41.0698	-117.583	-27.6621	92.6527	-94.4978	-10.4784	108.993	-107.49	11.8328	134.425	-124.75	-39.9326	119.032	-106.227	-13.9832	133.916	-127.188	10.6448	150.143	-181.566	-37.2845	107.039	-210.118	-32.4943	129.945	-201.419	-4.99066	104.63	
371	3.09167	-200.639	32.5334	122.18	-162.26	52.3557	121.12	-128.21	52.0583	122.611	-103.296	41.1362	125.848	-155.698	13.1433	53.0172	-133.811	18.0027	32.195	-112.038	21.5678	16.9899	-132.836	-13.0511	62.1161	-101.567	-10.5958	48.3068	-70.2685	-5.48884	42.3816	-116.243	-16.9253	97.3927	-96.7125	7.02054	110.373	-114.084	29.6347	134.129	-113.529	-21.7208	121.849	-105.994	4.35483	135.879	-131.849	23.2473	147.673	-178.196	-35.81	110.689	-203.096	-38.0878	128.707	-206.124	-9.34267	104.316	
372	3.1	-209.505	29.2148	119.506	-178.478	57.6238	119.566	-141.548	61.4869	117.275	-111.346	53.0969	118.697	-162.299	15.0599	52.5262	-142.753	21.3999	32.8679	-124.516	30.9419	13.2932	-135.486	-8.01439	63.742	-107.363	2.24632	46.1696	-78.777	10.2944	38.1155	-117.951	-3.42921	93.6542	-101.864	23.109	106.681	-126.072	45.2612	129.141	-115.941	-4.95313	117.257	-110.538	21.5635	133.845	-139.453	35.8927	145.362	-169.289	-35.2612	113.356	-199.274	-38.276	132.173	-204.189	-15.1951	106.019	
373	3.10833	-215.759	28.0659	115.865	-188.791	55.9677	113.591	-153.256	68.1519	108.376	-123.812	65.215	108.35	-172.62	14.4641	46.746	-157.368	23.9286	24.1252	-141.709	33.1232	3.67384	-141.713	-5.67113	58.398	-113.222	5.69517	38.3349	-85.6218	20.1043	27.1513	-120.623	5.88135	86.2197	-111.621	37.2409	96.9075	-133.006	51.6363	121.927	-116.812	-0.199621	114.874	-118.249	34.5131	123.156	-143.517	42.6554	136.57	-168.252	-32.0487	110.257	-195.75	-39.5553	133.639	-204.458	-19.233	102.546	
374	3.11667	-220.259	25.0104	114.482	-194.662	55.442	104.129	-164.471	68.2746	98.1608	-133.513	62.5284	95.7571	-182.69	8.02758	43.5625	-170.457	15.9716	17.8662	-160.617	26.4738	-3.27679	-148.114	-7.27458	48.3541	-131.202	2.39978	28.4584	-99.6518	18.6757	10.897	-129.353	6.43667	76.5811	-118.796	38.4713	84.6254	-142.445	53.1942	109.251	-123.865	4.66144	98.9698	-122.668	36.8505	112.869	-148.074	42.0231	127.98	-168.872	-33.4977	104.966	-191.813	-39.5332	131.398	-210.632	-20.3597	99.6914	
375	3.125	-223.141	18.755	114.013	-201.038	50.7716	97.6324	-170.541	68.0959	84.833	-139.202	59.41	78.8404	-191.33	0.239455	40.381	-185.246	7.13406	12.0818	-177.709	15.4374	-16.4673	-162.903	-13.8978	44.8241	-141.743	-4.75702	16.302	-120.603	9.77165	-2.42973	-139.864	2.13242	65.573	-129.034	33.7832	67.1095	-146.413	48.713	99.8779	-125.682	1.64925	90.1097	-127.27	32.4757	95.8456	-153.91	37.9413	114.762	-173.582	-34.4222	100.856	-192.888	-42.6397	131.26	-214.017	-25.2237	104.966	
376	3.13333	-225.878	15.0186	111.555	-208.618	47.5005	90.2766	-179.508	58.0256	73.8928	-151.917	55.0985	65.9814	-203.846	-9.4711	34.1535	-203.49	-4.77142	5.52966	-197.761	-0.813439	-16.7909	-173.525	-22.8291	38.7417	-160.522	-14.3892	7.3672	-141.333	-2.77249	-16.0969	-145.605	-0.862235	54.2013	-135.593	27.5604	57.3397	-154.64	44.4425	81.725	-135.167	-2.85731	75.1084	-133.302	28.2168	81.2371	-161.146	32.1174	102.377	-179.95	-39.3418	103.409	-194.675	-42.6702	128.885	-216.413	-27.1732	101.329	
377	3.14167	-233.018	14.3621	111.383	-216.087	39.3471	84.8492	-190.233	49.5289	63.5256	-165.031	46.5681	52.2873	-222.913	-17.8064	34.8581	-223.966	-15.6552	7.13293	-218.351	-16.0488	-18.9371	-192.262	-31.6799	30.9665	-181.242	-28.2817	3.83751	-161.924	-19.3021	-24.3731	-163.063	-9.83499	44.0726	-151.2	16.8411	42.7255	-164.443	35.8706	70.3671	-147.675	-13.1474	66.0199	-141.182	19.2554	66.1789	-163.361	27.1703	90.0105	-188.345	-40.6753	100.505	-193.723	-44.2233	130.431	-223.225	-31.8501	105.405	
378	3.15	-236.359	11.5147	107.809	-222.056	34.7226	78.9004	-199.507	44.5445	52.4067	-174.432	32.8813	40.9595	-236.317	-27.7037	35.4728	-242.765	-27.1368	7.13223	-238.463	-30.6346	-18.4631	-207.378	-41.0752	32.6689	-196.316	-40.9769	-1.36337	-187.196	-36.023	-29.9604	-175.761	-25.39	41.7424	-162.837	4.04312	31.2279	-172.531	26.2476	62.2485	-158.07	-24.2235	56.0871	-151.165	8.18098	54.1479	-168.679	20.0092	77.0242	-193.502	-46.8533	99.646	-199.51	-49.7192	128.883	-232.306	-34.3179	108.942	
